<svg width="50" height="50" viewBox="0 0 50 50" fill="none" xmlns="http://www.w3.org/2000/svg">
<g clip-path="url(#clip0)">
<path d="M17.5005 48C21.6397 48 24.999 44.64 24.999 40.5V33H17.5005C13.3613 33 10.002 36.36 10.002 40.5C10.002 44.64 13.3613 48 17.5005 48Z" fill="#0ACF83"/>
<path d="M10.002 25.5C10.002 21.36 13.3613 18 17.5005 18H24.999V33H17.5005C13.3613 33 10.002 29.64 10.002 25.5Z" fill="#A259FF"/>
<path d="M10.002 10.5C10.002 6.36 13.3613 3 17.5005 3H24.999V18H17.5005C13.3613 18 10.002 14.64 10.002 10.5Z" fill="#F24E1E"/>
<path d="M25 3H32.4985C36.6377 3 39.997 6.36 39.997 10.5C39.997 14.64 36.6377 18 32.4985 18H25V3Z" fill="#FF7262"/>
<path d="M39.997 25.5C39.997 29.64 36.6377 33 32.4985 33C28.3593 33 25 29.64 25 25.5C25 21.36 28.3593 18 32.4985 18C36.6377 18 39.997 21.36 39.997 25.5Z" fill="#1ABCFE"/>
</g>
<defs>
<clipPath id="clip0">
<rect width="30" height="45" fill="white" transform="translate(10 3)"/>
</clipPath>
</defs>
</svg>
