<svg width="50" height="50" viewBox="0 0 50 50" fill="none" xmlns="http://www.w3.org/2000/svg">
<path d="M17.2875 35.6129L24.1415 42.6898L42.9999 23.2261H29.2875L17.2875 35.6129Z" fill="#39CEFD"/>
<path d="M29.2875 2H42.9999L13.8584 32.0747L7 24.9978L29.2875 2Z" fill="#39CEFD"/>
<path d="M24.1417 42.6902L29.2876 47.9957H43L31 35.6133L24.1417 42.6902Z" fill="#03569B"/>
<path d="M34.3133 39.0543L31 35.6133L24.1417 42.6902L34.3133 39.0543Z" fill="url(#paint0_linear)"/>
<path d="M17.2869 35.6106L24.1454 28.5334L31.0043 35.6106L24.1454 42.6877L17.2869 35.6106Z" fill="#16B9FD"/>
<path d="M42.9999 23.2263L31 35.6132L42.9999 48H29.2875L17.2832 35.6132L29.2875 23.2263H42.9999ZM29.2875 2L7 24.9978L13.8584 32.0747L42.9999 2H29.2875V2Z" fill="url(#paint1_radial)"/>
<defs>
<linearGradient id="paint0_linear" x1="26.1432" y1="44.0559" x2="31.4113" y2="38.9505" gradientUnits="userSpaceOnUse">
<stop stop-color="#1A237E" stop-opacity="0.4"/>
<stop offset="1" stop-color="#1A237E" stop-opacity="0"/>
</linearGradient>
<radialGradient id="paint1_radial" cx="0" cy="0" r="1" gradientUnits="userSpaceOnUse" gradientTransform="translate(8.01136 5.13523) scale(54.5373 56.2754)">
<stop stop-color="white" stop-opacity="0.1"/>
<stop offset="1" stop-color="white" stop-opacity="0"/>
</radialGradient>
</defs>
</svg>
