<svg width="50" height="50" viewBox="0 0 50 50" fill="none" xmlns="http://www.w3.org/2000/svg">
<path d="M47 2H2V47H47V2Z" fill="#F7DF1E"/>
<path d="M32.2286 37.1564C33.135 38.6364 34.3143 39.7242 36.4 39.7242C38.1521 39.7242 39.2714 38.8485 39.2714 37.6385C39.2714 36.1885 38.1214 35.6749 36.1929 34.8314L35.1357 34.3778C32.0843 33.0778 30.0571 31.4492 30.0571 28.0064C30.0571 24.8349 32.4736 22.4207 36.25 22.4207C38.9386 22.4207 40.8714 23.3564 42.2643 25.8064L38.9714 27.9207C38.2464 26.6207 37.4643 26.1085 36.25 26.1085C35.0114 26.1085 34.2264 26.8942 34.2264 27.9207C34.2264 29.1892 35.0121 29.7028 36.8264 30.4885L37.8836 30.9414C41.4764 32.4821 43.505 34.0528 43.505 37.5842C43.505 41.3914 40.5143 43.4771 36.4979 43.4771C32.5707 43.4771 30.0336 41.6057 28.7921 39.1528L32.2286 37.1564ZM17.2907 37.5228C17.955 38.7014 18.5593 39.6978 20.0121 39.6978C21.4014 39.6978 22.2779 39.1542 22.2779 37.0407V22.6621H26.5064V37.0978C26.5064 41.4764 23.9393 43.4692 20.1921 43.4692C16.8064 43.4692 14.8457 41.7171 13.8486 39.6067L17.2907 37.5228Z" fill="black"/>
</svg>
