<svg width="50" height="50" viewBox="0 0 50 50" fill="none" xmlns="http://www.w3.org/2000/svg">
<path fill-rule="evenodd" clip-rule="evenodd" d="M49.626 11.1194C49.6444 11.1849 49.6538 11.2524 49.654 11.3203V21.8703C49.654 22.0057 49.6168 22.1387 49.5462 22.2559C49.4757 22.3731 49.3742 22.4703 49.252 22.5376L40.043 27.6357V37.7405C40.043 38.0155 39.891 38.2694 39.643 38.4078L20.42 49.0482C20.376 49.0722 20.328 49.0876 20.28 49.104C20.262 49.1097 20.245 49.1203 20.226 49.1251C20.0916 49.1591 19.9504 49.1591 19.816 49.1251C19.794 49.1194 19.774 49.1078 19.753 49.1001C19.709 49.0847 19.663 49.0713 19.621 49.0482L0.402 38.4078C0.279907 38.3404 0.178461 38.2432 0.107885 38.126C0.0373084 38.0089 9.67394e-05 37.8759 0 37.7405L0 6.09051C0 6.02127 0.01 5.95397 0.028 5.88858C0.034 5.86647 0.048 5.84627 0.056 5.82416C0.071 5.78377 0.085 5.74243 0.107 5.70493C0.122 5.67993 0.144 5.65974 0.162 5.63666C0.185 5.60589 0.206 5.57416 0.233 5.54724C0.256 5.52512 0.286 5.50877 0.312 5.48954C0.341 5.46647 0.367 5.44147 0.4 5.4232H0.401L10.011 0.103005C10.1327 0.0356785 10.2706 0.000244141 10.411 0.000244141C10.5514 0.000244141 10.6893 0.0356785 10.811 0.103005L20.421 5.4232H20.423C20.455 5.44243 20.482 5.46647 20.511 5.48858C20.537 5.50781 20.566 5.52512 20.589 5.54627C20.617 5.57416 20.637 5.60589 20.661 5.63666C20.678 5.65974 20.701 5.67993 20.715 5.70493C20.738 5.74339 20.751 5.78377 20.767 5.82416C20.775 5.84627 20.789 5.86647 20.795 5.88954C20.8134 5.95507 20.8228 6.02263 20.823 6.09051V25.8588L28.831 21.4251V11.3194C28.831 11.252 28.841 11.1838 28.859 11.1194C28.866 11.0963 28.879 11.0761 28.887 11.054C28.903 11.0136 28.917 10.9722 28.939 10.9347C28.954 10.9097 28.976 10.8895 28.993 10.8665C29.017 10.8357 29.037 10.804 29.065 10.777C29.088 10.7549 29.117 10.7386 29.143 10.7194C29.173 10.6963 29.199 10.6713 29.231 10.653H29.232L38.843 5.33281C38.9646 5.26539 39.1026 5.2299 39.243 5.2299C39.3834 5.2299 39.5214 5.26539 39.643 5.33281L49.253 10.653C49.287 10.6722 49.313 10.6963 49.343 10.7184C49.368 10.7376 49.397 10.7549 49.42 10.7761C49.448 10.804 49.468 10.8357 49.492 10.8665C49.51 10.8895 49.532 10.9097 49.546 10.9347C49.569 10.9722 49.582 11.0136 49.598 11.054C49.607 11.0761 49.62 11.0963 49.626 11.1194ZM48.052 21.4251V12.652L44.689 14.5136L40.043 17.0857V25.8588L48.053 21.4251H48.052ZM38.442 37.2953V28.5165L33.872 31.0261L20.822 38.1876V47.0492L38.442 37.2953ZM1.602 7.42224V37.2953L19.22 47.0482V38.1886L10.016 33.1799L10.013 33.178L10.009 33.1761C9.978 33.1588 9.952 33.1338 9.923 33.1126C9.898 33.0934 9.869 33.078 9.847 33.0569L9.845 33.054C9.819 33.0299 9.801 33.0001 9.779 32.9732C9.759 32.9472 9.735 32.9251 9.719 32.8982L9.718 32.8953C9.7 32.8665 9.689 32.8319 9.676 32.7992C9.663 32.7703 9.646 32.7434 9.638 32.7126V32.7117C9.628 32.6751 9.626 32.6367 9.622 32.5992C9.618 32.5703 9.61 32.5415 9.61 32.5126V32.5107V11.8559L4.965 9.28281L1.602 7.4232V7.42224ZM10.412 1.65877L2.405 6.09051L10.41 10.5222L18.416 6.08954L10.41 1.65877H10.412ZM14.576 29.3165L19.221 26.7453V7.42224L15.858 9.28377L11.212 11.8559V31.179L14.576 29.3165ZM39.243 6.88858L31.237 11.3203L39.243 15.752L47.248 11.3194L39.243 6.88858ZM38.442 17.0857L33.796 14.5136L30.433 12.652V21.4251L35.078 23.9963L38.442 25.8588V17.0857ZM20.02 36.8559L31.763 30.4097L37.633 27.1886L29.633 22.7597L20.422 27.8588L12.027 32.5059L20.02 36.8559Z" fill="#FF2D20"/>
</svg>
