<svg width="50" height="50" viewBox="0 0 50 50" fill="none" xmlns="http://www.w3.org/2000/svg">
<path d="M1 24.5C1 31.4035 11.7454 37 25 37C38.2545 37 49 31.4035 49 24.5C49 17.5966 38.2545 12 25 12C11.7454 12 1 17.5966 1 24.5Z" fill="url(#paint0_radial)"/>
<path d="M25 36.0718C37.7368 36.0718 48.0624 30.8908 48.0624 24.4998C48.0624 18.1089 37.7368 12.9279 25 12.9279C12.2631 12.9279 1.9375 18.1089 1.9375 24.4998C1.9375 30.8908 12.2631 36.0718 25 36.0718Z" fill="#777BB3"/>
<path d="M14.0395 25.9349C15.0868 25.9349 15.8686 25.7437 16.3634 25.3667C16.8528 24.9936 17.1908 24.3472 17.368 23.4456C17.5331 22.6028 17.4702 22.0143 17.181 21.6967C16.8852 21.3724 16.2458 21.2079 15.2805 21.2079H13.6068L12.679 25.9349H14.0395ZM8.56528 31.7578C8.48759 31.7578 8.4138 31.7234 8.36441 31.664C8.31493 31.6046 8.29488 31.5264 8.30972 31.4508L10.7687 18.924C10.7925 18.8029 10.8997 18.7154 11.0244 18.7154H16.3242C17.9898 18.7154 19.2296 19.1632 20.0088 20.0465C20.7923 20.9344 21.0342 22.1755 20.7278 23.7354C20.6032 24.3709 20.3888 24.9611 20.0906 25.4895C19.7921 26.0185 19.3975 26.5079 18.9178 26.9445C18.3435 27.4767 17.6935 27.8626 16.9876 28.0897C16.2929 28.3138 15.4007 28.4274 14.3358 28.4274H12.1898L11.577 31.5491C11.5532 31.6703 11.4461 31.7578 11.3214 31.7578H8.56528Z" fill="black"/>
<path d="M13.8215 21.4652H15.2805C16.4455 21.4652 16.8502 21.7183 16.9877 21.8691C17.2158 22.1196 17.2589 22.6476 17.1122 23.3961C16.9475 24.2341 16.6421 24.8283 16.2044 25.1619C15.7563 25.5035 15.0279 25.6766 14.0394 25.6766H12.9948L13.8215 21.4652ZM16.3241 18.457H11.0242C10.7749 18.457 10.5606 18.632 10.513 18.8743L8.05401 31.4011C8.02433 31.5523 8.06443 31.7087 8.1633 31.8275C8.26226 31.9464 8.40966 32.0151 8.56521 32.0151H11.3213C11.5707 32.0151 11.785 31.8401 11.8326 31.5979L12.4044 28.6847H14.3358C15.428 28.6847 16.3474 28.5668 17.0683 28.3343C17.8097 28.0958 18.4918 27.6914 19.0956 27.1324C19.5949 26.6776 20.0062 26.1671 20.3178 25.6149C20.6295 25.0625 20.8535 24.4465 20.9834 23.784C21.3059 22.1421 21.0439 20.8273 20.2049 19.8764C19.374 18.9346 18.0682 18.457 16.3241 18.457ZM12.3629 26.1922H14.0394C15.1506 26.1922 15.9783 25.985 16.5221 25.5705C17.0661 25.1559 17.4329 24.4639 17.6235 23.4943C17.8059 22.5633 17.7228 21.9063 17.3743 21.5236C17.0254 21.1409 16.3275 20.9495 15.2805 20.9495H13.3921L12.3629 26.1922V26.1922ZM16.3241 18.9727C17.9185 18.9727 19.0816 19.387 19.8127 20.2156C20.5437 21.0442 20.7638 22.2008 20.4721 23.6857C20.3521 24.2974 20.149 24.8566 19.8632 25.3633C19.577 25.8703 19.2033 26.3339 18.7415 26.7543C18.1911 27.2642 17.5798 27.6276 16.907 27.844C16.2343 28.061 15.3774 28.169 14.3358 28.169H11.975L11.3213 31.4995H8.56521L11.0242 18.9727H16.3241" fill="white"/>
<path d="M27.0471 28.427C26.9694 28.427 26.8957 28.3926 26.8463 28.3331C26.7967 28.2738 26.7767 28.1956 26.7915 28.12L27.8793 22.5774C27.9827 22.0503 27.9572 21.6719 27.8075 21.5121C27.7158 21.4144 27.4405 21.2505 26.6263 21.2505H24.6557L23.288 28.2183C23.2643 28.3395 23.1571 28.427 23.0324 28.427H20.298C20.2203 28.427 20.1466 28.3926 20.0971 28.3331C20.0476 28.2738 20.0275 28.1955 20.0424 28.12L22.5014 15.5932C22.5252 15.4721 22.6324 15.3846 22.7571 15.3846H25.4914C25.5692 15.3846 25.6429 15.419 25.6924 15.4784C25.7419 15.5378 25.7619 15.616 25.7471 15.6916L25.1537 18.715H27.2736C28.8886 18.715 29.9838 18.9969 30.6216 19.5769C31.2718 20.1686 31.4747 21.1146 31.2247 22.389L30.0806 28.2183C30.0568 28.3395 29.9497 28.427 29.8249 28.427H27.0471Z" fill="black"/>
<path d="M25.4914 15.127H22.757C22.5076 15.127 22.2933 15.302 22.2457 15.5442L19.7867 28.0711C19.757 28.2222 19.7971 28.3786 19.8961 28.4974C19.995 28.6163 20.1424 28.6851 20.298 28.6851H23.0323C23.2816 28.6851 23.496 28.5101 23.5436 28.2678L24.8703 21.5085H26.6262C27.439 21.5085 27.6096 21.6804 27.6164 21.6878C27.6657 21.7403 27.7306 21.9835 27.6236 22.5284L26.5358 28.0711C26.5061 28.2222 26.5462 28.3786 26.6452 28.4974C26.7441 28.6163 26.8915 28.6851 27.0471 28.6851H29.8249C30.0742 28.6851 30.2886 28.5101 30.3361 28.2678L31.4801 22.4385C31.7486 21.0701 31.5189 20.0436 30.7978 19.3873C30.1096 18.7616 28.9568 18.4574 27.2736 18.4574H25.4694L26.0026 15.7411C26.0322 15.5899 25.9922 15.4335 25.8933 15.3147C25.7943 15.1958 25.6469 15.127 25.4914 15.127ZM25.4914 15.6426L24.8376 18.9731H27.2736C28.8063 18.9731 29.8635 19.238 30.4453 19.7671C31.0272 20.2965 31.2015 21.1543 30.9689 22.3401L29.8249 28.1694H27.0471L28.1348 22.6268C28.2586 21.9963 28.2131 21.5663 27.9982 21.337C27.7832 21.1077 27.3258 20.9928 26.6262 20.9928H24.4408L23.0323 28.1694H20.298L22.757 15.6426H25.4914Z" fill="white"/>
<path d="M35.5511 25.9349C36.5984 25.9349 37.3802 25.7437 37.8749 25.3667C38.3643 24.9937 38.7024 24.3473 38.8796 23.4456C39.0448 22.6028 38.9819 22.0143 38.6926 21.6967C38.3968 21.3724 37.7574 21.2079 36.7921 21.2079H35.1184L34.1906 25.9349H35.5511ZM30.0769 31.7578C29.9993 31.7578 29.9255 31.7234 29.8761 31.664C29.8266 31.6046 29.8065 31.5264 29.8213 31.4508L32.2803 18.924C32.3042 18.8029 32.4113 18.7154 32.5361 18.7154H37.8358C39.5015 18.7154 40.7412 19.1632 41.5205 20.0465C42.3039 20.9343 42.5458 22.1754 42.2395 23.7354C42.1147 24.3709 41.9004 24.9611 41.6022 25.4895C41.3037 26.0185 40.9091 26.5079 40.4294 26.9445C39.8551 27.4767 39.2051 27.8626 38.4992 28.0897C37.8045 28.3138 36.9123 28.4274 35.8474 28.4274H33.7013L33.0887 31.5491C33.0649 31.6703 32.9578 31.7578 32.833 31.7578H30.0769Z" fill="black"/>
<path d="M35.3332 21.4652H36.7922C37.9572 21.4652 38.3619 21.7183 38.4994 21.8691C38.7276 22.1196 38.7707 22.6476 38.624 23.3961C38.4592 24.2341 38.1538 24.8283 37.7162 25.1619C37.2681 25.5035 36.5396 25.6766 35.5512 25.6766H34.5066L35.3332 21.4652ZM37.8359 18.457H32.5361C32.2868 18.457 32.0724 18.632 32.0249 18.8743L29.5659 31.4011C29.5362 31.5523 29.5763 31.7087 29.6751 31.8275C29.7741 31.9464 29.9215 32.0151 30.0771 32.0151H32.8331C33.0824 32.0151 33.2968 31.8401 33.3444 31.5979L33.9162 28.6847H35.8475C36.9397 28.6847 37.8592 28.5668 38.5801 28.3343C39.3215 28.0958 40.0038 27.6913 40.6075 27.1322C41.1068 26.6775 41.5179 26.1671 41.8295 25.6149C42.1413 25.0625 42.3652 24.4465 42.4952 23.784C42.8177 22.142 42.5557 20.8272 41.7166 19.8763C40.8857 18.9346 39.5801 18.457 37.8359 18.457ZM33.8748 26.1922H35.5512C36.6624 26.1922 37.4901 25.985 38.0339 25.5705C38.5779 25.1559 38.9447 24.4639 39.1353 23.4943C39.3177 22.5633 39.2347 21.9063 38.8861 21.5236C38.5371 21.1409 37.8393 20.9495 36.7922 20.9495H34.9039L33.8748 26.1922ZM37.8359 18.9727C39.4302 18.9727 40.5934 19.387 41.3244 20.2156C42.0555 21.0442 42.2756 22.2008 41.9839 23.6857C41.8638 24.2974 41.6608 24.8566 41.3749 25.3633C41.0888 25.8703 40.7151 26.3339 40.2532 26.7543C39.7029 27.2642 39.0915 27.6276 38.4188 27.844C37.746 28.061 36.8892 28.169 35.8475 28.169H33.4868L32.8331 31.4995H30.0771L32.5361 18.9727H37.8359" fill="white"/>
<defs>
<radialGradient id="paint0_radial" cx="0" cy="0" r="1" gradientUnits="userSpaceOnUse" gradientTransform="translate(15.4097 16.3946) scale(31.5154 31.2036)">
<stop stop-color="#AEB2D5"/>
<stop offset="0.3" stop-color="#AEB2D5"/>
<stop offset="0.75" stop-color="#484C89"/>
<stop offset="1" stop-color="#484C89"/>
</radialGradient>
</defs>
</svg>
