<svg width="50" height="50" viewBox="0 0 50 50" fill="none" xmlns="http://www.w3.org/2000/svg">
<path d="M50 25.0003C50 38.8068 38.8073 50 25.0001 50C11.1927 50 0 38.8068 0 25.0003C0 11.1929 11.1927 0 25.0001 0C38.8073 0 50 11.1929 50 25.0003Z" fill="#DD4814"/>
<path d="M5.95771 21.1277C3.89284 21.1277 2.21997 22.8611 2.21997 25.0003C2.21997 27.1386 3.89284 28.8718 5.95771 28.8718C8.0214 28.8718 9.6943 27.1386 9.6943 25.0003C9.6943 22.8611 8.0214 21.1277 5.95771 21.1277ZM32.6393 38.7252C30.8519 39.7948 30.239 42.1615 31.2715 44.0124C32.3027 45.8644 34.587 46.4992 36.3744 45.4296C38.1616 44.3611 38.7745 41.9944 37.7421 40.1423C36.7109 38.2916 34.4254 37.6568 32.6393 38.7252ZM14.0748 25.0003C14.0748 21.1741 15.9092 17.7937 18.7159 15.7467L15.9839 11.0056C12.7143 13.27 10.2816 16.7302 9.2707 20.7827C10.4503 21.7801 11.2054 23.2983 11.2054 25.0002C11.2054 26.701 10.4503 28.2193 9.2707 29.2166C10.2803 33.2703 12.713 36.7307 15.9839 38.9951L18.7159 34.2528C15.9092 32.207 14.0748 28.8268 14.0748 25.0003ZM24.99 13.6899C30.6924 13.6899 35.3708 18.2199 35.8619 23.9971L41.1868 23.9157C40.9248 19.6507 39.1265 15.8219 36.3634 13.0064C34.9425 13.5626 33.3012 13.4775 31.8826 12.6302C30.4615 11.7805 29.5705 10.3472 29.327 8.7913C27.9459 8.3964 26.4924 8.1802 24.9897 8.1802C22.4064 8.1802 19.964 8.8089 17.7955 9.9209L20.3921 14.742C21.7889 14.0685 23.3473 13.6899 24.99 13.6899ZM24.99 36.3096C23.3473 36.3096 21.789 35.9308 20.3922 35.2575L17.7956 40.0784C19.9642 41.1918 22.4066 41.8207 24.99 41.8207C26.4927 41.8207 27.9462 41.6043 29.3271 41.2082C29.5707 39.6523 30.462 38.2203 31.8828 37.3691C33.3023 36.5205 34.9426 36.4369 36.3635 36.9931C39.1267 34.1776 40.9249 30.3488 41.1869 26.0838L35.8608 26.0024C35.3708 31.7811 30.6926 36.3096 24.99 36.3096ZM32.638 11.2731C34.4254 12.3426 36.7098 11.7091 37.741 9.8572C38.7733 8.0052 38.162 5.63836 36.3744 4.56857C34.587 3.50014 32.3027 4.13496 31.2701 5.98689C30.239 7.8378 30.8517 10.2047 32.638 11.2731Z" fill="white"/>
</svg>
