<svg width="50" height="50" viewBox="0 0 50 50" fill="none" xmlns="http://www.w3.org/2000/svg">
<path d="M1.42896 17.8738C1.42896 17.8738 0.245355 17.0049 1.66568 15.8448L4.97484 12.8316C4.97484 12.8316 5.92172 11.8171 6.92285 12.701L37.4598 36.2446V47.5343C37.4598 47.5343 37.445 49.3071 35.211 49.1112L1.42896 17.8738Z" fill="#2489CA"/>
<path d="M9.29992 25.1509L1.42892 32.4379C1.42892 32.4379 0.620125 33.0506 1.42892 34.1454L5.08331 37.5302C5.08331 37.5302 5.95129 38.4794 7.23353 37.3997L15.578 30.9564L9.29992 25.1509Z" fill="#1070B3"/>
<path d="M23.1186 25.2111L37.5537 13.9867L37.46 2.75722C37.46 2.75722 36.8435 0.306427 34.787 1.58204L15.578 19.3854L23.1186 25.2111Z" fill="#0877B9"/>
<path d="M35.2111 49.1261C36.0495 49.9999 37.0654 49.7136 37.0654 49.7136L48.3146 44.0688C49.7546 43.0694 49.5524 41.829 49.5524 41.829V8.12064C49.5524 6.63912 48.0631 6.12687 48.0631 6.12687L38.3131 1.34081C36.1827 -9.2566e-05 34.787 1.58187 34.787 1.58187C34.787 1.58187 36.5821 0.266079 37.46 2.75704V47.3282C37.46 47.6345 37.3958 47.9358 37.2676 48.207C37.0112 48.7343 36.4539 49.2265 35.1174 49.0206L35.2111 49.1261Z" fill="#3C99D4"/>
</svg>
